<svg width="234" height="47" viewBox="0 0 234 47" fill="none" xmlns="http://www.w3.org/2000/svg">
<path d="M220.441 39.5762C218.18 39.5762 217.049 38.9148 217.049 37.5922C217.049 36.7388 217.327 35.8215 217.881 34.8402C218.479 33.8588 219.204 32.8775 220.057 31.8962C220.911 30.8722 221.764 29.8695 222.617 28.8882C223.513 27.9068 224.239 27.0108 224.793 26.2002C225.391 25.3468 225.689 24.6215 225.689 24.0242C225.689 23.8108 225.583 23.6402 225.369 23.5122C225.199 23.3415 224.943 23.2562 224.601 23.2562C224.089 23.2562 223.364 23.5122 222.425 24.0242C221.529 24.5362 220.377 25.4108 218.969 26.6482C217.604 27.8428 215.983 29.4642 214.105 31.5122C212.228 33.5175 210.073 36.0348 207.641 39.0642C207.257 38.9788 206.681 38.9362 205.913 38.9362C205.145 38.9362 204.484 39.0215 203.929 39.1922C205.167 37.4002 206.383 35.6508 207.577 33.9442C208.772 32.2375 209.86 30.6802 210.841 29.2722C211.865 27.8642 212.676 26.7122 213.273 25.8162C213.871 24.8775 214.169 24.3015 214.169 24.0882C214.169 23.7042 213.977 23.5122 213.593 23.5122C213.167 23.5122 212.633 23.8535 211.993 24.5362C211.353 25.1762 210.649 26.0082 209.881 27.0322C209.113 28.0135 208.324 29.0162 207.513 30.0402L206.937 29.6562C207.791 28.6748 208.623 27.6508 209.433 26.5842C210.244 25.5175 211.076 24.6002 211.929 23.8322C212.783 23.0642 213.679 22.6802 214.617 22.6802C215.087 22.6802 215.513 22.8082 215.897 23.0642C216.324 23.2775 216.537 23.6402 216.537 24.1522C216.537 24.6215 216.345 25.1975 215.961 25.8802C215.62 26.5202 215.151 27.2668 214.553 28.1202C213.956 28.9308 213.273 29.8482 212.505 30.8722C211.78 31.8535 211.012 32.9202 210.201 34.0722L210.265 34.4562C212.527 31.9815 214.425 29.9762 215.961 28.4402C217.54 26.9042 218.841 25.7308 219.865 24.9202C220.932 24.0668 221.849 23.4908 222.617 23.1922C223.428 22.8508 224.196 22.6802 224.921 22.6802C225.903 22.6802 226.607 22.8935 227.033 23.3202C227.46 23.7042 227.673 24.2375 227.673 24.9202C227.673 25.9442 227.375 27.0322 226.777 28.1842C226.18 29.2935 225.433 30.4028 224.537 31.5122C223.684 32.5788 222.809 33.5815 221.913 34.5202C221.06 35.4162 220.335 36.1842 219.737 36.8242C219.14 37.4642 218.841 37.8908 218.841 38.1042C218.841 38.3602 218.905 38.5522 219.033 38.6802C219.204 38.8082 219.609 38.8722 220.249 38.8722C221.828 38.8722 223.321 38.3815 224.729 37.4002C226.18 36.4188 227.567 35.2242 228.889 33.8162C230.212 32.3655 231.449 30.9362 232.601 29.5282L233.113 29.9762C231.961 31.3415 230.703 32.7708 229.337 34.2642C227.972 35.7575 226.543 37.0162 225.049 38.0402C223.556 39.0642 222.02 39.5762 220.441 39.5762Z" fill="white"/>
<path d="M193.008 39.5758C191.003 39.5758 189.68 39.1278 189.04 38.2318C188.4 37.2931 188.08 36.3118 188.08 35.2878C188.08 33.5384 188.528 31.9171 189.424 30.4238C190.32 28.8878 191.472 27.5224 192.88 26.3278C194.288 25.1331 195.739 24.2158 197.232 23.5758C198.768 22.8931 200.133 22.5518 201.328 22.5518C202.181 22.5518 202.864 22.6798 203.376 22.9358C203.888 23.1491 204.144 23.6184 204.144 24.3438C204.144 25.0264 203.739 25.7518 202.928 26.5198C202.117 27.2878 201.093 28.0344 199.856 28.7598C198.619 29.4424 197.317 30.0824 195.952 30.6798C194.629 31.2344 193.413 31.6824 192.304 32.0238C191.195 32.3651 190.384 32.5358 189.872 32.5358C189.872 32.5358 189.872 32.4291 189.872 32.2158C189.872 31.9598 189.872 31.8318 189.872 31.8318C190.256 31.8744 190.917 31.7464 191.856 31.4478C192.837 31.1491 193.925 30.7651 195.12 30.2958C196.315 29.7838 197.467 29.2078 198.576 28.5678C199.728 27.9278 200.667 27.2451 201.392 26.5198C202.16 25.7944 202.544 25.0904 202.544 24.4078C202.544 24.0664 202.437 23.7678 202.224 23.5118C202.053 23.2558 201.733 23.1278 201.264 23.1278C200.581 23.1278 199.749 23.4691 198.768 24.1518C197.829 24.7918 196.869 25.6451 195.888 26.7118C194.907 27.7784 193.989 28.9091 193.136 30.1038C192.283 31.2984 191.579 32.4504 191.024 33.5598C190.512 34.6264 190.256 35.5224 190.256 36.2478C190.256 37.1011 190.512 37.7411 191.024 38.1678C191.536 38.5944 192.283 38.8078 193.264 38.8078C194.971 38.8078 196.571 38.4024 198.064 37.5918C199.6 36.7384 200.987 35.7571 202.224 34.6478C203.461 33.4958 204.507 32.4291 205.36 31.4478C206.213 30.4238 206.789 29.7624 207.088 29.4638C207.088 29.4638 207.152 29.5278 207.28 29.6558C207.451 29.7838 207.536 29.8478 207.536 29.8478C207.237 30.1891 206.661 30.8718 205.808 31.8958C204.955 32.9198 203.888 34.0291 202.608 35.2238C201.328 36.4184 199.877 37.4424 198.256 38.2958C196.635 39.1491 194.885 39.5758 193.008 39.5758Z" fill="white"/>
<path d="M188.296 0.21582C188.808 0.301153 189.341 0.365152 189.896 0.407818C190.493 0.407818 191.09 0.343819 191.688 0.21582C191.645 0.258486 191.282 0.770486 190.6 1.75182C189.917 2.69049 188.978 3.97049 187.784 5.59182C186.632 7.17049 185.33 8.96249 183.88 10.9678C182.472 12.9732 181 15.0425 179.464 17.1758C177.97 19.2665 176.498 21.3145 175.048 23.3198C173.64 25.2825 172.338 27.0745 171.143 28.6958C169.991 30.3172 169.074 31.6185 168.391 32.5998C167.709 33.5812 167.346 34.0932 167.303 34.1358C167.303 34.1358 167.325 34.1785 167.367 34.2638C167.41 34.3065 167.432 34.3492 167.432 34.3918C168.498 33.2398 169.65 31.9812 170.887 30.6158C172.125 29.2505 173.383 27.9705 174.663 26.7758C175.943 25.5385 177.202 24.5358 178.439 23.7678C179.719 22.9998 180.893 22.6158 181.96 22.6158C183.325 22.6158 184.199 22.9358 184.583 23.5758C185.01 24.1732 185.223 24.7065 185.223 25.1758C185.223 26.0718 184.925 27.0532 184.327 28.1198C183.73 29.1865 182.983 30.2532 182.087 31.3198C181.234 32.3865 180.36 33.3892 179.464 34.3278C178.61 35.2238 177.885 36.0132 177.288 36.6958C176.69 37.3785 176.391 37.8692 176.391 38.1678C176.391 38.5092 176.648 38.7225 177.16 38.8078C177.714 38.8505 178.162 38.8718 178.503 38.8718C179.485 38.8718 180.552 38.5092 181.704 37.7838C182.856 37.0585 183.986 36.1625 185.096 35.0958C186.205 34.0292 187.208 32.9838 188.104 31.9598C189 30.9358 189.682 30.1252 190.152 29.5278L190.663 29.9118C190.237 30.4238 189.597 31.2132 188.743 32.2798C187.89 33.3038 186.866 34.3918 185.672 35.5438C184.52 36.6532 183.261 37.6132 181.896 38.4238C180.53 39.1918 179.101 39.5758 177.607 39.5758C177.053 39.5758 176.413 39.4265 175.688 39.1278C174.962 38.8718 174.6 38.2958 174.6 37.3998C174.6 36.6745 174.877 35.8425 175.432 34.9038C176.029 33.9225 176.754 32.9198 177.607 31.8958C178.461 30.8292 179.314 29.8052 180.167 28.8238C181.063 27.8425 181.789 26.9465 182.344 26.1358C182.941 25.2825 183.24 24.5998 183.24 24.0878C183.24 23.5332 182.834 23.2558 182.023 23.2558C180.999 23.2558 179.762 23.7465 178.311 24.7278C176.903 25.6665 175.41 26.9252 173.831 28.5038C172.253 30.0825 170.674 31.7892 169.096 33.6238C167.56 35.4585 166.13 37.2718 164.807 39.0638C164.253 38.9785 163.634 38.9358 162.952 38.9358C162.269 38.9358 161.629 39.0212 161.031 39.1918C161.031 39.1918 161.416 38.6585 162.184 37.5918C162.952 36.4825 163.997 35.0105 165.32 33.1758C166.6 31.2985 168.05 29.2078 169.671 26.9038C171.293 24.5572 172.957 22.1678 174.663 19.7358C176.37 17.2612 178.034 14.8718 179.656 12.5678C181.277 10.2212 182.728 8.13049 184.008 6.29582C185.33 4.41849 186.375 2.94649 187.143 1.87982C187.911 0.770486 188.296 0.21582 188.296 0.21582Z" fill="white"/>
<path d="M155.627 3.41577C156.097 3.45844 156.353 3.58644 156.395 3.79978C156.438 3.97044 156.225 4.03444 155.755 3.99177C153.451 3.77844 151.254 4.03444 149.163 4.75978C147.073 5.44244 145.217 6.38111 143.595 7.57578C142.017 8.77044 140.758 10.0291 139.819 11.3518C138.923 12.6744 138.475 13.8264 138.475 14.8078C138.475 16.7278 139.222 18.1571 140.715 19.0958C142.209 20.0344 144.129 20.5038 146.475 20.5038C148.523 20.5038 150.699 20.1624 153.003 19.4798C155.307 18.7544 157.569 17.8371 159.787 16.7278C162.006 15.5758 164.011 14.3811 165.803 13.1438C167.595 11.8638 169.025 10.6691 170.091 9.55978C171.158 8.45044 171.691 7.55444 171.691 6.87178C171.691 6.35978 171.478 6.03978 171.051 5.91178C170.667 5.74111 170.219 5.65578 169.707 5.65578C168.299 5.65578 166.593 6.14644 164.587 7.12778C162.582 8.10911 160.427 9.45311 158.123 11.1598C155.862 12.8238 153.622 14.6798 151.403 16.7278C149.227 18.7758 147.222 20.8878 145.387 23.0638C143.595 25.1971 142.145 27.2451 141.035 29.2078C139.969 31.1704 139.435 32.8771 139.435 34.3278C139.435 35.9491 139.926 37.1224 140.907 37.8478C141.931 38.5731 143.126 38.9358 144.491 38.9358C145.814 38.9358 147.158 38.5731 148.523 37.8478C149.931 37.1224 151.297 36.1838 152.619 35.0318C153.942 33.8798 155.115 32.6424 156.139 31.3198C157.206 29.9971 158.038 28.6958 158.635 27.4158C159.275 26.1358 159.595 25.0264 159.595 24.0878C159.595 23.2771 159.361 22.7438 158.891 22.4878C158.465 22.2318 157.953 22.1038 157.355 22.1038C155.691 22.1038 154.049 22.6158 152.427 23.6398C150.806 24.6211 149.334 25.9438 148.011 27.6078C146.689 29.2291 145.622 31.0211 144.811 32.9838C144.043 34.9038 143.659 36.8238 143.659 38.7438C143.659 39.4691 143.787 40.3011 144.043 41.2398C144.299 42.1784 144.555 42.9891 144.811 43.6718C145.067 44.3971 145.195 44.8451 145.195 45.0158C145.238 45.3144 145.195 45.5491 145.067 45.7198C144.939 45.8904 144.747 45.8264 144.491 45.5278C144.235 45.2718 143.915 44.5464 143.531 43.3518C143.147 42.1571 142.955 40.6638 142.955 38.8718C142.955 36.7384 143.339 34.6478 144.107 32.5998C144.918 30.5518 146.006 28.6958 147.371 27.0318C148.737 25.3251 150.315 23.9811 152.107 22.9998C153.899 21.9758 155.819 21.4638 157.867 21.4638C158.934 21.4638 159.873 21.7624 160.683 22.3598C161.494 22.9144 161.899 23.7464 161.899 24.8558C161.899 26.1784 161.451 27.6718 160.555 29.3358C159.702 30.9998 158.465 32.6211 156.843 34.1998C155.265 35.7358 153.387 37.0158 151.211 38.0398C149.078 39.0211 146.753 39.5118 144.235 39.5118C142.017 39.5118 140.374 38.8931 139.307 37.6558C138.283 36.3758 137.771 34.9891 137.771 33.4958C137.771 31.4478 138.241 29.3358 139.179 27.1598C140.161 24.9838 141.483 22.8291 143.147 20.6958C144.811 18.5624 146.71 16.5571 148.843 14.6798C150.977 12.8024 153.238 11.1598 155.627 9.75178C158.059 8.30111 160.491 7.17044 162.923 6.35977C165.355 5.50644 167.681 5.07978 169.899 5.07978C170.411 5.07978 170.945 5.18644 171.499 5.39978C172.054 5.61311 172.331 6.01844 172.331 6.61578C172.331 7.81044 171.777 9.06911 170.667 10.3918C169.601 11.7144 168.129 13.0158 166.251 14.2958C164.417 15.5331 162.369 16.6638 160.107 17.6878C157.846 18.7118 155.521 19.5438 153.131 20.1838C150.785 20.7811 148.545 21.0798 146.411 21.0798C143.638 21.0798 141.441 20.5678 139.819 19.5438C138.241 18.4771 137.451 16.6851 137.451 14.1678C137.451 12.8451 137.985 11.5224 139.051 10.1998C140.118 8.83444 141.526 7.61844 143.275 6.55178C145.067 5.48511 147.03 4.65311 149.163 4.05578C151.339 3.45844 153.494 3.24511 155.627 3.41577Z" fill="white"/>
<path d="M117.239 11.3521C117.623 11.5227 118.178 11.608 118.903 11.608C119.671 11.5654 120.268 11.5014 120.695 11.416C119.33 13.2934 117.815 15.3627 116.151 17.6241C114.487 19.8854 112.802 22.1467 111.095 24.4081C109.431 26.6267 107.874 28.7174 106.423 30.6801C105.015 32.6001 103.884 34.2214 103.031 35.5441C102.178 36.8667 101.751 37.6987 101.751 38.0401C101.751 38.2961 101.9 38.4881 102.199 38.6161C102.455 38.7441 102.796 38.8081 103.223 38.8081C104.162 38.8081 105.186 38.4881 106.295 37.8481C107.447 37.1654 108.578 36.3334 109.687 35.3521C110.839 34.3281 111.884 33.3041 112.823 32.2801C113.804 31.2134 114.572 30.2961 115.127 29.5281L115.639 29.9121C115.042 30.6801 114.252 31.5974 113.271 32.6641C112.29 33.7307 111.202 34.7974 110.007 35.864C108.812 36.9307 107.575 37.8267 106.295 38.552C105.058 39.2347 103.863 39.5761 102.711 39.5761C101.9 39.5761 101.26 39.4054 100.791 39.0641C100.279 38.7654 100.023 38.2321 100.023 37.4641C100.023 36.7814 100.428 35.7361 101.239 34.3281C102.05 32.8774 103.095 31.2134 104.375 29.3361C105.698 27.4587 107.127 25.4747 108.663 23.3841C110.199 21.2507 111.714 19.1601 113.207 17.1121C114.743 15.0214 116.087 13.1014 117.239 11.3521ZM110.199 18.5201C109.772 18.5201 109.559 18.3921 109.559 18.1361C109.559 17.9227 109.772 17.816 110.199 17.816H122.359C122.487 17.816 122.615 17.8374 122.743 17.8801C122.914 17.9227 122.999 18.0081 122.999 18.1361C122.999 18.3067 122.914 18.4134 122.743 18.4561C122.615 18.4987 122.487 18.5201 122.359 18.5201H110.199Z" fill="white"/>
<path d="M87.8895 40.4721C86.3961 40.4721 85.2655 40.1948 84.4975 39.6401C83.7295 39.0855 83.3455 38.3388 83.3455 37.4001C83.3455 36.7175 83.5801 36.1201 84.0495 35.6081C84.4761 35.0535 84.9881 34.6268 85.5855 34.3281C86.1828 33.9868 86.6521 33.8161 86.9935 33.8161C87.4628 33.8161 87.7828 33.9228 87.9535 34.1361C88.0815 34.3068 88.1455 34.4988 88.1455 34.7121C88.1455 35.0534 87.9535 35.3308 87.5695 35.5441C87.1428 35.7575 86.8015 35.8641 86.5455 35.8641C86.2468 35.8641 85.9908 35.7788 85.7775 35.6081C85.5215 35.3948 85.3935 35.2881 85.3935 35.2881C85.1801 35.3308 84.8815 35.5655 84.4975 35.9921C84.1135 36.4188 83.9215 36.8881 83.9215 37.4001C83.9215 37.9121 84.1988 38.4028 84.7535 38.8721C85.3081 39.3415 86.2041 39.5761 87.4415 39.5761C88.7215 39.5761 89.9375 39.1495 91.0895 38.2961C92.2841 37.4428 93.2655 36.3548 94.0335 35.0321C94.8015 33.7095 95.1855 32.3655 95.1855 31.0001C95.1855 30.5308 95.1855 29.9121 95.1855 29.1441C95.1855 28.3334 95.1855 27.6721 95.1855 27.1601C95.1855 26.5201 95.2921 25.7948 95.5055 24.9841C95.7188 24.1308 95.9535 23.3415 96.2095 22.6161C96.5081 21.8908 96.7428 21.4428 96.9135 21.2721C97.2548 20.9735 97.5108 20.8881 97.6815 21.0161C97.8521 21.1441 97.8948 21.2721 97.8095 21.4001C97.7668 21.4428 97.4895 21.7841 96.9775 22.4241C96.4655 23.0215 95.8255 23.7681 95.0575 24.6641C94.2895 25.5601 93.5215 26.4561 92.7535 27.3521C91.9855 28.2481 91.3028 29.0375 90.7055 29.7201C90.1508 30.4028 89.8308 30.8081 89.7455 30.9361C89.5321 31.2348 89.3401 31.2988 89.1695 31.1281C88.9988 30.9574 89.0415 30.7441 89.2975 30.4881C89.7668 29.8908 90.3428 29.1868 91.0255 28.3761C91.7508 27.5228 92.4761 26.6908 93.2015 25.8801C93.9268 25.0695 94.5455 24.3868 95.0575 23.8321C95.6121 23.2348 95.9108 22.8935 95.9535 22.8081C96.0815 22.6375 96.1881 22.3388 96.2735 21.9121C96.4015 21.4855 96.5508 21.0801 96.7215 20.6961C96.9348 20.3121 97.1908 20.1201 97.4895 20.1201C98.2148 20.1201 98.5775 20.3761 98.5775 20.8881C98.5775 21.2721 98.2788 21.7415 97.6815 22.2961C97.1268 22.8508 96.8068 23.2988 96.7215 23.6401C96.5935 24.1521 96.5935 24.8774 96.7215 25.8161C96.8921 26.7121 97.0628 27.7361 97.2335 28.8881C97.4468 30.0401 97.5535 31.2561 97.5535 32.5361C97.5535 34.2428 97.2121 35.6295 96.5295 36.6961C95.8468 37.7201 94.9935 38.5095 93.9695 39.0641C92.9455 39.6188 91.8788 39.9815 90.7695 40.1521C89.7028 40.3655 88.7428 40.4721 87.8895 40.4721ZM97.7455 36.0561C96.6361 36.0561 95.9108 35.8428 95.5695 35.4161C95.2708 34.9895 95.1641 34.4988 95.2495 33.9441C95.3775 33.3468 95.5268 32.8135 95.6975 32.3441L96.3375 32.4081C96.2095 32.8348 96.0815 33.2828 95.9535 33.7521C95.8681 34.2215 95.9321 34.6268 96.1455 34.9681C96.3588 35.3095 96.9135 35.4801 97.8095 35.4801C98.4495 35.4801 99.1748 35.1815 99.9855 34.5841C100.796 33.9868 101.585 33.2615 102.353 32.4081C103.164 31.5548 103.847 30.7228 104.401 29.9121L104.977 30.3601C104.423 31.0428 103.74 31.8321 102.929 32.7281C102.161 33.6241 101.329 34.4135 100.433 35.0961C99.5375 35.7361 98.6415 36.0561 97.7455 36.0561Z" fill="white"/>
<path d="M76.0081 39.5758C74.0027 39.5758 72.6801 39.1278 72.0401 38.2318C71.4001 37.2931 71.0801 36.3118 71.0801 35.2878C71.0801 33.5384 71.5281 31.9171 72.4241 30.4238C73.3201 28.8878 74.4721 27.5224 75.8801 26.3278C77.2881 25.1331 78.7387 24.2158 80.2321 23.5758C81.7681 22.8931 83.1334 22.5518 84.3281 22.5518C85.1814 22.5518 85.8641 22.6798 86.3761 22.9358C86.8881 23.1491 87.1441 23.6184 87.1441 24.3438C87.1441 25.0264 86.7387 25.7518 85.9281 26.5198C85.1174 27.2878 84.0934 28.0344 82.8561 28.7598C81.6187 29.4424 80.3174 30.0824 78.9521 30.6798C77.6294 31.2344 76.4134 31.6824 75.3041 32.0238C74.1947 32.3651 73.3841 32.5358 72.8721 32.5358C72.8721 32.5358 72.8721 32.4291 72.8721 32.2158C72.8721 31.9598 72.8721 31.8318 72.8721 31.8318C73.2561 31.8744 73.9174 31.7464 74.8561 31.4478C75.8374 31.1491 76.9254 30.7651 78.1201 30.2958C79.3147 29.7838 80.4667 29.2078 81.5761 28.5678C82.7281 27.9278 83.6667 27.2451 84.3921 26.5198C85.1601 25.7944 85.5441 25.0904 85.5441 24.4078C85.5441 24.0664 85.4374 23.7678 85.2241 23.5118C85.0534 23.2558 84.7334 23.1278 84.2641 23.1278C83.5814 23.1278 82.7494 23.4691 81.7681 24.1518C80.8294 24.7918 79.8694 25.6451 78.8881 26.7118C77.9067 27.7784 76.9894 28.9091 76.1361 30.1038C75.2827 31.2984 74.5787 32.4504 74.0241 33.5598C73.5121 34.6264 73.2561 35.5224 73.2561 36.2478C73.2561 37.1011 73.5121 37.7411 74.0241 38.1678C74.5361 38.5944 75.2827 38.8078 76.2641 38.8078C77.9707 38.8078 79.5707 38.4024 81.0641 37.5918C82.6001 36.7384 83.9867 35.7571 85.2241 34.6478C86.4614 33.4958 87.5067 32.4291 88.3601 31.4478C89.2134 30.4238 89.7894 29.7624 90.0881 29.4638C90.0881 29.4638 90.1521 29.5278 90.2801 29.6558C90.4507 29.7838 90.5361 29.8478 90.5361 29.8478C90.2374 30.1891 89.6614 30.8718 88.8081 31.8958C87.9547 32.9198 86.8881 34.0291 85.6081 35.2238C84.3281 36.4184 82.8774 37.4424 81.2561 38.2958C79.6347 39.1491 77.8854 39.5758 76.0081 39.5758Z" fill="white"/>
<path d="M60.9414 39.5762C58.6801 39.5762 57.5494 38.9148 57.5494 37.5922C57.5494 36.7388 57.8268 35.8215 58.3814 34.8402C58.9788 33.8588 59.7041 32.8775 60.5574 31.8962C61.4108 30.8722 62.2641 29.8695 63.1174 28.8882C64.0134 27.9068 64.7388 27.0108 65.2934 26.2002C65.8908 25.3468 66.1894 24.6215 66.1894 24.0242C66.1894 23.8108 66.0828 23.6402 65.8694 23.5122C65.6988 23.3415 65.4428 23.2562 65.1014 23.2562C64.5894 23.2562 63.8641 23.5122 62.9254 24.0242C62.0294 24.5362 60.8774 25.4108 59.4694 26.6482C58.1041 27.8428 56.4828 29.4642 54.6054 31.5122C52.7281 33.5175 50.5734 36.0348 48.1414 39.0642C47.7574 38.9788 47.1814 38.9362 46.4134 38.9362C45.6454 38.9362 44.9841 39.0215 44.4294 39.1922C45.6668 37.4002 46.8828 35.6508 48.0774 33.9442C49.2721 32.2375 50.3601 30.6802 51.3414 29.2722C52.3654 27.8642 53.1761 26.7122 53.7734 25.8162C54.3708 24.8775 54.6694 24.3015 54.6694 24.0882C54.6694 23.7042 54.4774 23.5122 54.0934 23.5122C53.6668 23.5122 53.1334 23.8535 52.4934 24.5362C51.8534 25.1762 51.1494 26.0082 50.3814 27.0322C49.6134 28.0135 48.8241 29.0162 48.0134 30.0402L47.4374 29.6562C48.2908 28.6748 49.1228 27.6508 49.9334 26.5842C50.7441 25.5175 51.5761 24.6002 52.4294 23.8322C53.2828 23.0642 54.1788 22.6802 55.1174 22.6802C55.5868 22.6802 56.0134 22.8082 56.3974 23.0642C56.8241 23.2775 57.0374 23.6402 57.0374 24.1522C57.0374 24.6215 56.8454 25.1975 56.4614 25.8802C56.1201 26.5202 55.6508 27.2668 55.0534 28.1202C54.4561 28.9308 53.7734 29.8482 53.0054 30.8722C52.2801 31.8535 51.5121 32.9202 50.7014 34.0722L50.7654 34.4562C53.0268 31.9815 54.9254 29.9762 56.4614 28.4402C58.0401 26.9042 59.3414 25.7308 60.3654 24.9202C61.4321 24.0668 62.3494 23.4908 63.1174 23.1922C63.9281 22.8508 64.6961 22.6802 65.4214 22.6802C66.4028 22.6802 67.1068 22.8935 67.5334 23.3202C67.9601 23.7042 68.1734 24.2375 68.1734 24.9202C68.1734 25.9442 67.8748 27.0322 67.2774 28.1842C66.6801 29.2935 65.9334 30.4028 65.0374 31.5122C64.1841 32.5788 63.3094 33.5815 62.4134 34.5202C61.5601 35.4162 60.8348 36.1842 60.2374 36.8242C59.6401 37.4642 59.3414 37.8908 59.3414 38.1042C59.3414 38.3602 59.4054 38.5522 59.5334 38.6802C59.7041 38.8082 60.1094 38.8722 60.7494 38.8722C62.3281 38.8722 63.8214 38.3815 65.2294 37.4002C66.6801 36.4188 68.0668 35.2242 69.3894 33.8162C70.7121 32.3655 71.9494 30.9362 73.1014 29.5282L73.6134 29.9762C72.4614 31.3415 71.2028 32.7708 69.8374 34.2642C68.4721 35.7575 67.0428 37.0162 65.5494 38.0402C64.0561 39.0642 62.5201 39.5762 60.9414 39.5762Z" fill="white"/>
<path d="M30.6251 30.6158C30.4544 30.7865 30.3264 30.8078 30.2411 30.6798C30.1558 30.5091 30.1344 30.3385 30.1771 30.1678C30.9024 29.4425 31.6064 28.5891 32.2891 27.6078C33.0144 26.6265 33.6118 25.7091 34.0811 24.8558C34.5931 24.0025 34.8918 23.4265 34.9771 23.1278C35.0624 23.1278 35.1904 23.0638 35.3611 22.9358C35.5744 22.8078 35.7664 22.7651 35.9371 22.8078C35.8944 23.1065 35.8304 23.3838 35.7451 23.6398C35.7024 23.8958 35.8518 24.1305 36.1931 24.3438C36.5344 24.5571 37.2384 24.7705 38.3051 24.9838C39.3718 25.1971 40.9931 25.4318 43.1691 25.6878C43.3824 25.7305 43.5318 25.8158 43.6171 25.9438C43.7451 26.0291 43.6811 26.1785 43.4251 26.3918C42.6144 27.0318 41.7184 27.8425 40.7371 28.8238C39.7558 29.8051 38.7958 30.8505 37.8571 31.9598C36.9611 33.0265 36.2144 34.0718 35.6171 35.0958C35.0624 36.1198 34.7851 36.9731 34.7851 37.6558C34.7851 38.4238 35.1264 38.8078 35.8091 38.8078C36.6624 38.8078 37.6224 38.4665 38.6891 37.7838C39.7984 37.1011 40.9078 36.2691 42.0171 35.2878C43.1264 34.2638 44.1504 33.2398 45.0891 32.2158C46.0704 31.1491 46.8811 30.2745 47.5211 29.5918L48.0331 29.9758C47.4358 30.5731 46.6678 31.4051 45.7291 32.4718C44.7904 33.5385 43.7238 34.6265 42.5291 35.7358C41.3771 36.8025 40.1398 37.7198 38.8171 38.4878C37.4944 39.2131 36.1291 39.5758 34.7211 39.5758C33.9104 39.5758 33.1851 39.3838 32.5451 38.9998C31.9051 38.6585 31.5851 38.0185 31.5851 37.0798C31.5851 36.1838 31.9691 35.2451 32.7371 34.2638C33.5051 33.2825 34.4651 32.3011 35.6171 31.3198C36.7691 30.2958 37.9638 29.3358 39.2011 28.4398C40.4811 27.5011 41.6118 26.6478 42.5931 25.8798L43.0411 26.4558C42.6144 26.2851 41.8678 26.1358 40.8011 26.0078C39.7344 25.8371 38.6251 25.6238 37.4731 25.3678C36.3211 25.0691 35.3184 24.6851 34.4651 24.2158C33.6544 23.7465 33.2491 23.1065 33.2491 22.2958C33.2491 21.8691 33.4198 21.3571 33.7611 20.7598C34.1451 20.1198 34.6571 19.7998 35.2971 19.7998C35.8944 19.7998 36.2998 19.9278 36.5131 20.1838C36.7264 20.3971 36.8331 20.6958 36.8331 21.0798C36.8331 21.3358 36.6198 21.8691 36.1931 22.6798C35.7664 23.4478 35.2331 24.3651 34.5931 25.4318C33.9531 26.4558 33.2704 27.4371 32.5451 28.3758C31.8624 29.3145 31.2224 30.0611 30.6251 30.6158Z" fill="white"/>
<path d="M10.1279 46.3601C9.74394 46.1041 9.31727 45.4641 8.84794 44.4401C8.42127 43.4161 8.20794 41.8161 8.20794 39.6401C8.20794 38.2321 8.48527 36.8028 9.03994 35.3521C9.5946 33.8588 10.3626 32.4934 11.3439 31.2561C12.3253 29.9761 13.4773 28.9521 14.7999 28.1841C16.1226 27.4161 17.5519 27.0321 19.0879 27.0321C20.3679 27.0321 21.3279 27.4374 21.9679 28.2481C22.6079 29.0161 22.9279 29.8908 22.9279 30.8721C22.9279 31.9814 22.4586 33.2401 21.5199 34.6481C20.5813 36.0134 19.1733 37.1868 17.2959 38.1681C15.4613 39.1494 13.1573 39.6401 10.3839 39.6401C8.80527 39.6401 7.26927 39.4268 5.77594 39.0001C4.32527 38.5308 3.1306 37.7841 2.19194 36.7601C1.25327 35.7361 0.783936 34.3921 0.783936 32.7281C0.783936 30.5521 1.4666 28.5681 2.83194 26.7761C4.23994 24.9841 6.05327 23.5548 8.27194 22.4881C10.5333 21.4214 12.9226 20.8881 15.4399 20.8881C16.1653 20.8881 17.1039 20.9734 18.2559 21.1441C19.4079 21.2721 20.4319 21.5281 21.3279 21.9121C22.2239 22.2961 22.6719 22.8294 22.6719 23.5121C22.6719 23.8108 22.5653 24.0241 22.3519 24.1521C22.1386 24.2374 21.8826 24.2801 21.5839 24.2801C20.4746 24.2801 19.3866 23.9814 18.3199 23.3841C17.2533 22.7441 16.3573 21.9121 15.6319 20.8881C14.9493 19.8641 14.6079 18.7548 14.6079 17.5601C14.6079 15.2134 15.3119 13.1014 16.7199 11.2241C18.1706 9.30411 20.0479 7.78945 22.3519 6.68011C24.6986 5.57078 27.2159 5.01611 29.9039 5.01611C32.6346 5.01611 34.6826 5.50678 36.0479 6.48811C37.4133 7.42678 38.0959 8.72811 38.0959 10.3921C38.0959 11.8428 37.3706 13.2721 35.9199 14.6801C34.5119 16.0881 32.5706 17.2401 30.0959 18.1361C27.6213 19.0321 24.8266 19.4801 21.7119 19.4801C18.3413 19.4801 15.5893 19.1601 13.4559 18.5201C11.3226 17.8801 9.6586 17.1121 8.46394 16.2161C7.26927 15.2774 6.41594 14.4028 5.90394 13.5921C5.4346 12.7388 5.13594 12.1414 5.00794 11.8001C4.87994 11.4588 4.87994 11.2668 5.00794 11.2241C5.13594 11.1388 5.3066 11.2028 5.51994 11.4161C5.64794 11.6294 5.90394 12.1201 6.28794 12.8881C6.7146 13.6561 7.4186 14.4881 8.39994 15.3841C9.42394 16.2801 10.9173 17.0694 12.8799 17.7521C14.8426 18.3921 17.4453 18.7121 20.6879 18.7121C22.4799 18.7121 24.3359 18.4988 26.2559 18.0721C28.2186 17.6454 30.0106 17.0481 31.6319 16.2801C33.2959 15.5121 34.6399 14.6161 35.6639 13.5921C36.6879 12.5254 37.1999 11.3734 37.1999 10.1361C37.1999 8.85611 36.6666 7.78945 35.5999 6.93611C34.5333 6.08278 32.8693 5.65611 30.6079 5.65611C28.6879 5.65611 26.8959 6.10411 25.2319 7.00011C23.5679 7.89611 22.0959 9.02678 20.8159 10.3921C19.5786 11.7148 18.5973 13.0801 17.8719 14.4881C17.1466 15.8534 16.7839 17.0054 16.7839 17.9441C16.7839 18.8828 17.0186 19.8001 17.4879 20.6961C17.9999 21.5921 18.6186 22.3174 19.3439 22.8721C20.1119 23.4268 20.8799 23.7041 21.6479 23.7041C21.9466 23.7041 22.0959 23.5974 22.0959 23.3841C22.0959 23.2134 21.9039 23.0001 21.5199 22.7441C21.1359 22.4881 20.6026 22.2748 19.9199 22.1041C19.2799 21.8908 18.5333 21.7841 17.6799 21.7841C15.9733 21.7841 14.2879 22.1468 12.6239 22.8721C10.9599 23.5974 9.42394 24.5574 8.01594 25.7521C6.6506 26.9041 5.54127 28.1841 4.68794 29.5921C3.87727 31.0001 3.47194 32.3868 3.47194 33.7521C3.47194 34.7761 3.7066 35.6721 4.17594 36.4401C4.68794 37.2081 5.41327 37.8268 6.35194 38.2961C7.2906 38.7228 8.46394 38.9361 9.87194 38.9361C11.2799 38.9361 12.6879 38.6374 14.0959 38.0401C15.5039 37.4001 16.7839 36.5894 17.9359 35.6081C19.1306 34.6268 20.0693 33.6241 20.7519 32.6001C21.4773 31.5334 21.8399 30.5948 21.8399 29.7841C21.8399 29.1441 21.6053 28.6321 21.1359 28.2481C20.6666 27.8214 20.0053 27.6081 19.1519 27.6081C17.7439 27.6081 16.4213 27.9921 15.1839 28.7601C13.9466 29.4854 12.8373 30.4668 11.8559 31.7041C10.9173 32.8988 10.1706 34.2428 9.61594 35.7361C9.06127 37.1868 8.80527 38.6374 8.84794 40.0881C8.8906 41.4108 9.03994 42.5841 9.29594 43.6081C9.5946 44.6748 9.99994 45.4854 10.5119 46.0401C10.5973 46.1681 10.6186 46.2961 10.5759 46.4241C10.5333 46.5521 10.3839 46.5308 10.1279 46.3601Z" fill="white"/>
</svg>
